@startuml
title FitLife Membership Management Code Diagram

top to bottom direction

!includeurl https://raw.githubusercontent.com/RicardoNiepel/C4-PlantUML/master/C4_Component.puml

class Bff {
  +List<Room> homeInfo
  +User userInfo
  +void getUserInfo()
  +void getHomeInfo()
  +void setEventTemp()
  +void setEventSensor()
  +void setEventLighter()
  +void checkToken()
}

class User {
  +String name
  +String email
  +List<Home> homes
  +void getInfo()
}

class Room {
  +String location
  +String temperature
  +String lighting
  +List<Lighter> lighters
  +List<Sensors> sensors
  +void getState()
  +void activate()
  +void cancel()
  +void getSensor()
  +void setSensor()
  +void getTemperature()
  +void setLighter()
}

Bff "1" -- "0..*" User : has
Bff "1" -- "0..*" Room : includes

@enduml